<svg width="20" height="20" viewBox="0 0 20 20" fill="none" xmlns="http://www.w3.org/2000/svg">
<g clip-path="url(#clip0_87_35)">
<path d="M18.7926 10.2043C18.7926 9.55459 18.7343 8.92984 18.626 8.33008H9.99609V11.8787H14.9275C14.7109 13.0199 14.0612 13.9862 13.0865 14.6359V16.9433H16.0604C17.793 15.344 18.7926 12.9949 18.7926 10.2043Z" fill="#4285F4"/>
<path d="M9.99651 19.1589C12.4705 19.1589 14.5447 18.3425 16.0608 16.9431L13.087 14.6356C12.2706 15.1854 11.2294 15.5186 9.99651 15.5186C7.61412 15.5186 5.58992 13.9109 4.8652 11.7451H1.81641V14.1108C3.32414 17.1013 6.41459 19.1589 9.99651 19.1589Z" fill="#34A853"/>
<path d="M4.86475 11.7368C4.68149 11.1871 4.5732 10.604 4.5732 9.99587C4.5732 9.38778 4.68149 8.80467 4.86475 8.25489V5.88916H1.81595C1.1912 7.12201 0.833008 8.51312 0.833008 9.99587C0.833008 11.4786 1.1912 12.8697 1.81595 14.1026L4.19001 12.2533L4.86475 11.7368Z" fill="#FBBC05"/>
<path d="M9.99651 4.48157C11.346 4.48157 12.5455 4.94805 13.5035 5.84769L16.1274 3.22373C14.5364 1.74098 12.4705 0.833008 9.99651 0.833008C6.41459 0.833008 3.32414 2.89053 1.81641 5.88934L4.8652 8.25507C5.58992 6.08926 7.61412 4.48157 9.99651 4.48157Z" fill="#EA4335"/>
</g>
<defs>
<clipPath id="clip0_87_35">
<rect width="19.9921" height="19.9921" fill="white"/>
</clipPath>
</defs>
</svg>
